# xmcd CD database file
#
# Track frame offsets:
#	150
#	26750
#	53839
#	90530
#	109646
#	133993
#	154489
#	164126
#	185809
#	209350
#	219563
#	238494
#	272545
#	287837
#
# Disc length: 4248 seconds
#
# Revision: 0
# Processed by: cddbd v1.5.1PL2 Copyright (c) Steve Scherf et al.
# Submitted via: CDex 1.51
#
DISCID=e110960e
DTITLE=Tim Garland - If The Sea Replied
DYEAR=2006
DGENRE=Jazz
TTITLE0=Tide Races
TTITLE1=The Machine
TTITLE2=St Mary's Light
TTITLE3=Spring Tide
TTITLE4=Young in the Fifties
TTITLE5=Six or Seven Lights
TTITLE6=Springtide (duet)
TTITLE7=If The Sea Replied
TTITLE8=Storm Warning
TTITLE9=Tide Races (string reprise)
TTITLE10=The Distance
TTITLE11=Going Ashore
TTITLE12=Dark Home
TTITLE13=Epilogue - From The Land
EXTD=YEAR: 2006
EXTT0=
EXTT1=
EXTT2=
EXTT3=
EXTT4=
EXTT5=
EXTT6=
EXTT7=
EXTT8=
EXTT9=
EXTT10=
EXTT11=
EXTT12=
EXTT13=
PLAYORDER=
